<svg xmlns="http://www.w3.org/2000/svg" viewBox="0 0 68 70" role="img">
  <title>National Designation Renewal Secretariat crest (fictional)</title>
  <path fill-rule="evenodd" fill="currentColor" d="M 26.9 44.1 C 26.5 43.9, 25.5 43.4, 24.8 43.1 C 24 42.8, 23.3 42.6, 22.4 42.4 C 21.5 42.2, 20.5 42.1, 19.4 41.9 C 18.4 41.6, 17.3 41.3, 16.2 40.8 C 15.1 40.4, 14 39.8, 12.8 39.2 C 11.5 38.6, 10.2 37.7, 8.8 36.9 C 7.4 36.2, 5.2 35.1, 4.2 34.6 C 3.2 34.2, 3.4 34.4, 3 34.3 C 2.5 34.3, 1.4 34.4, 1.3 34.3 C 1.2 34.3, 2.1 34.1, 2.4 34 C 2.6 34, 2.6 34, 2.9 33.8 C 3.2 33.7, 3.2 33.9, 4 33.2 C 4.9 32.5, 7 30.7, 8 29.5 C 9 28.4, 9.5 27.2, 10 26.1 C 10.6 25, 10.9 24, 11.2 22.9 C 11.6 21.8, 12 20.8, 12.3 19.6 C 12.6 18.5, 13 17.2, 13.1 15.9 C 13.1 14.7, 12.8 13, 12.6 12.2 C 12.5 11.4, 12.3 11.5, 12.1 11.1 C 11.9 10.7, 11.1 9.9, 11.1 9.9 C 11.2 9.8, 12 10.5, 12.4 10.8 C 12.8 11, 13.4 11.2, 13.6 11.2 C 13.8 11.3, 12.7 11.1, 13.6 11.3 C 14.6 11.4, 17.8 12.2, 19.3 12.2 C 20.8 12.3, 21.6 11.8, 22.7 11.5 C 23.7 11.1, 24.6 10.7, 25.6 10.2 C 26.6 9.6, 27.7 9.3, 28.6 8.4 C 29.6 7.5, 30.8 5.5, 31.3 4.7 C 31.9 3.9, 31.7 4, 31.8 3.6 C 31.9 3.1, 31.9 2, 32 2 C 32.1 2, 32.1 3.1, 32.2 3.6 C 32.3 4, 32.1 3.9, 32.7 4.7 C 33.2 5.5, 34.4 7.5, 35.4 8.4 C 36.3 9.3, 37.4 9.6, 38.4 10.2 C 39.4 10.7, 40.3 11.1, 41.3 11.5 C 42.4 11.8, 43.2 12.3, 44.7 12.2 C 46.2 12.2, 49.4 11.4, 50.4 11.3 C 51.3 11.1, 50.2 11.3, 50.4 11.2 C 50.6 11.2, 51.2 11, 51.6 10.8 C 52 10.5, 52.8 9.8, 52.9 9.9 C 52.9 9.9, 52.1 10.7, 51.9 11.1 C 51.7 11.5, 51.5 11.4, 51.4 12.2 C 51.2 13, 50.9 14.7, 50.9 15.9 C 51 17.2, 51.4 18.5, 51.7 19.6 C 52 20.8, 52.4 21.8, 52.8 22.9 C 53.1 24, 53.4 25, 54 26.1 C 54.5 27.2, 55 28.4, 56 29.5 C 57 30.7, 59.1 32.5, 60 33.2 C 60.8 33.9, 60.8 33.7, 61.1 33.8 C 61.4 34, 61.4 34, 61.6 34 C 61.9 34.1, 62.8 34.3, 62.7 34.3 C 62.6 34.4, 61.5 34.3, 61 34.3 C 60.6 34.4, 60.8 34.2, 59.8 34.6 C 58.8 35.1, 56.6 36.2, 55.2 36.9 C 53.8 37.7, 52.5 38.6, 51.2 39.2 C 50 39.8, 48.9 40.4, 47.8 40.8 C 46.7 41.3, 45.6 41.6, 44.6 41.9 C 43.5 42.1, 42.5 42.2, 41.6 42.4 C 40.7 42.6, 40 42.8, 39.2 43.1 C 38.5 43.4, 37.5 43.9, 37.1 44.1 L 35 43.1 Q 34.7 55.1, 33.3 64.1 Q 32.7 67.1, 32 67.1 Q 31.4 67.1, 30.7 64.1 Q 29.3 55.1, 29 43.1 Z M 31.57 12.57 L 31.57 15.43 L 34.43 15.43 L 34.43 12.57 Z M 31.57 17.77 L 31.57 20.63 L 34.43 20.63 L 34.43 17.77 Z M 31.57 22.97 L 31.57 25.83 L 34.43 25.83 L 34.43 22.97 Z M 34.17 15.17 L 34.17 18.03 L 37.03 18.03 L 37.03 15.17 Z M 34.17 20.37 L 34.17 23.23 L 37.03 23.23 L 37.03 20.37 Z M 34.17 25.57 L 34.17 28.43 L 37.03 28.43 L 37.03 25.57 Z M 36.77 12.57 L 36.77 15.43 L 39.63 15.43 L 39.63 12.57 Z M 36.77 17.77 L 36.77 20.63 L 39.63 20.63 L 39.63 17.77 Z M 36.77 22.97 L 36.77 25.83 L 39.63 25.83 L 39.63 22.97 Z M 39.37 15.17 L 39.37 18.03 L 42.23 18.03 L 42.23 15.17 Z M 39.37 20.37 L 39.37 23.23 L 42.23 23.23 L 42.23 20.37 Z M 39.37 25.57 L 39.37 28.43 L 42.23 28.43 L 42.23 25.57 Z M 41.97 12.57 L 41.97 15.43 L 44.83 15.43 L 44.83 12.57 Z M 41.97 17.77 L 41.97 20.63 L 44.83 20.63 L 44.83 17.77 Z M 41.97 22.97 L 41.97 25.83 L 44.83 25.83 L 44.83 22.97 Z M 44.57 15.17 L 44.57 18.03 L 47.43 18.03 L 47.43 15.17 Z M 44.57 20.37 L 44.57 23.23 L 47.43 23.23 L 47.43 20.37 Z M 44.57 25.57 L 44.57 28.43 L 47.43 28.43 L 47.43 25.57 Z M 47.17 12.57 L 47.17 15.43 L 50.03 15.43 L 50.03 12.57 Z M 47.17 17.77 L 47.17 20.63 L 50.03 20.63 L 50.03 17.77 Z M 47.17 22.97 L 47.17 25.83 L 50.03 25.83 L 50.03 22.97 Z M 49.77 25.57 L 49.77 28.43 L 52.63 28.43 L 52.63 25.57 Z M 36.57 28.57 L 36.57 31.43 L 39.43 31.43 L 39.43 28.57 Z M 36.57 33.77 L 36.57 36.63 L 39.43 36.63 L 39.43 33.77 Z M 36.57 38.97 L 36.57 41.83 L 39.43 41.83 L 39.43 38.97 Z M 39.17 31.17 L 39.17 34.03 L 42.03 34.03 L 42.03 31.17 Z M 39.17 36.37 L 39.17 39.23 L 42.03 39.23 L 42.03 36.37 Z M 41.77 28.57 L 41.77 31.43 L 44.63 31.43 L 44.63 28.57 Z M 41.77 33.77 L 41.77 36.63 L 44.63 36.63 L 44.63 33.77 Z M 41.77 38.97 L 41.77 41.83 L 44.63 41.83 L 44.63 38.97 Z M 44.37 31.17 L 44.37 34.03 L 47.23 34.03 L 47.23 31.17 Z M 44.37 36.37 L 44.37 39.23 L 47.23 39.23 L 47.23 36.37 Z M 46.97 28.57 L 46.97 31.43 L 49.83 31.43 L 49.83 28.57 Z M 46.97 33.77 L 46.97 36.63 L 49.83 36.63 L 49.83 33.77 Z M 49.57 31.17 L 49.57 34.03 L 52.43 34.03 L 52.43 31.17 Z M 52.17 28.57 L 52.17 31.43 L 55.03 31.43 L 55.03 28.57 Z M 52.17 33.77 L 52.17 36.63 L 55.03 36.63 L 55.03 33.77 Z M 54.77 31.17 L 54.77 34.03 L 57.63 34.03 L 57.63 31.17 Z M 26.57 10.57 L 26.57 13.43 L 29.43 13.43 L 29.43 10.57 Z M 26.57 15.77 L 26.57 18.63 L 29.43 18.63 L 29.43 15.77 Z M 29.17 13.17 L 29.17 16.03 L 32.03 16.03 L 32.03 13.17 Z M 29.17 18.37 L 29.17 21.23 L 32.03 21.23 L 32.03 18.37 Z M 31.77 10.57 L 31.77 13.43 L 34.63 13.43 L 34.63 10.57 Z M 31.77 15.77 L 31.77 18.63 L 34.63 18.63 L 34.63 15.77 Z M 34.37 13.17 L 34.37 16.03 L 37.23 16.03 L 37.23 13.17 Z M 34.37 18.37 L 34.37 21.23 L 37.23 21.23 L 37.23 18.37 Z M 36.97 15.77 L 36.97 18.63 L 39.83 18.63 L 39.83 15.77 Z"/>
  <g fill="currentColor">
    <rect x="48.1" y="16.9" width="2.6" height="2.6"/>
    <rect x="48.1" y="14.3" width="2.6" height="2.6"/>
    <rect x="50.7" y="16.9" width="2.6" height="2.6"/>
    <rect x="50.7" y="11.7" width="2.6" height="2.6"/>
    <rect x="53.3" y="14.3" width="2.6" height="2.6"/>
    <rect x="55.9" y="14.3" width="2.6" height="2.6"/>
    <rect x="53.3" y="9.1" width="2.6" height="2.6"/>
    <rect x="58.5" y="14.3" width="2.6" height="2.6"/>
    <rect x="55.9" y="9.1" width="2.6" height="2.6"/>
    <rect x="55.9" y="9.1" width="2.6" height="2.6"/>
    <rect x="56.42" y="12.22" width="1.56" height="1.56"/>
    <rect x="53.82" y="9.62" width="1.56" height="1.56"/>
    <rect x="59.02" y="14.82" width="1.56" height="1.56"/>
    <rect x="53.82" y="9.62" width="1.56" height="1.56"/>
    <rect x="59.02" y="12.22" width="1.56" height="1.56"/>
    <rect x="61.62" y="12.22" width="1.56" height="1.56"/>
    <rect x="56.42" y="4.42" width="1.56" height="1.56"/>
    <rect x="64.22" y="14.82" width="1.56" height="1.56"/>
    <rect x="61.62" y="7.02" width="1.56" height="1.56"/>
    <rect x="61.62" y="7.02" width="1.56" height="1.56"/>
    <rect x="69.42" y="14.82" width="1.56" height="1.56"/>
    <rect x="59.02" y="1.82" width="1.56" height="1.56"/>
    <rect x="69.42" y="9.62" width="1.56" height="1.56"/>
    <rect x="69.42" y="7.02" width="1.56" height="1.56"/>
    <g class="crest-fine">
      <rect x="61.95" y="9.95" width="0.91" height="0.91"/>
      <rect x="59.35" y="4.75" width="0.91" height="0.91"/>
      <rect x="67.15" y="15.15" width="0.91" height="0.91"/>
      <rect x="59.35" y="4.75" width="0.91" height="0.91"/>
      <rect x="67.15" y="9.95" width="0.91" height="0.91"/>
      <rect x="67.15" y="9.95" width="0.91" height="0.91"/>
      <rect x="59.35" y="2.15" width="0.91" height="0.91"/>
      <rect x="72.35" y="12.55" width="0.91" height="0.91"/>
      <rect x="64.55" y="4.75" width="0.91" height="0.91"/>
      <rect x="67.15" y="2.15" width="0.91" height="0.91"/>
      <rect x="74.95" y="12.55" width="0.91" height="0.91"/>
      <rect x="61.95" y="-0.45" width="0.91" height="0.91"/>
      <rect x="74.95" y="9.95" width="0.91" height="0.91"/>
      <rect x="72.35" y="4.75" width="0.91" height="0.91"/>
      <rect x="64.55" y="-3.05" width="0.91" height="0.91"/>
      <rect x="77.55" y="12.55" width="0.91" height="0.91"/>
      <rect x="67.15" y="-3.05" width="0.91" height="0.91"/>
      <rect x="74.95" y="2.15" width="0.91" height="0.91"/>
    </g>
  </g>
</svg>
