<svg xmlns="http://www.w3.org/2000/svg" viewBox="0 0 68 70" role="img">
  <title>National Designation Renewal Secretariat crest (fictional)</title>
  <path fill-rule="evenodd" fill="currentColor" d="M 26.9 44.1 C 26.5 43.9, 25.5 43.4, 24.8 43.1 C 24 42.8, 23.3 42.6, 22.4 42.4 C 21.5 42.2, 20.5 42.1, 19.4 41.9 C 18.4 41.6, 17.3 41.3, 16.2 40.8 C 15.1 40.4, 14 39.8, 12.8 39.2 C 11.5 38.6, 10.2 37.7, 8.8 36.9 C 7.4 36.2, 5.2 35.1, 4.2 34.6 C 3.2 34.2, 3.4 34.4, 3 34.3 C 2.5 34.3, 1.4 34.4, 1.3 34.3 C 1.2 34.3, 2.1 34.1, 2.4 34 C 2.6 34, 2.6 34, 2.9 33.8 C 3.2 33.7, 3.2 33.9, 4 33.2 C 4.9 32.5, 7 30.7, 8 29.5 C 9 28.4, 9.5 27.2, 10 26.1 C 10.6 25, 10.9 24, 11.2 22.9 C 11.6 21.8, 12 20.8, 12.3 19.6 C 12.6 18.5, 13 17.2, 13.1 15.9 C 13.1 14.7, 12.8 13, 12.6 12.2 C 12.5 11.4, 12.3 11.5, 12.1 11.1 C 11.9 10.7, 11.1 9.9, 11.1 9.9 C 11.2 9.8, 12 10.5, 12.4 10.8 C 12.8 11, 13.4 11.2, 13.6 11.2 C 13.8 11.3, 12.7 11.1, 13.6 11.3 C 14.6 11.4, 17.8 12.2, 19.3 12.2 C 20.8 12.3, 21.6 11.8, 22.7 11.5 C 23.7 11.1, 24.6 10.7, 25.6 10.2 C 26.6 9.6, 27.7 9.3, 28.6 8.4 C 29.6 7.5, 30.8 5.5, 31.3 4.7 C 31.9 3.9, 31.7 4, 31.8 3.6 C 31.9 3.1, 31.9 2, 32 2 C 32.1 2, 32.1 3.1, 32.2 3.6 C 32.3 4, 32.1 3.9, 32.7 4.7 C 33.2 5.5, 34.4 7.5, 35.4 8.4 C 36.3 9.3, 37.4 9.6, 38.4 10.2 C 39.4 10.7, 40.3 11.1, 41.3 11.5 C 42.4 11.8, 43.2 12.3, 44.7 12.2 C 46.2 12.2, 49.4 11.4, 50.4 11.3 C 51.3 11.1, 50.2 11.3, 50.4 11.2 C 50.6 11.2, 51.2 11, 51.6 10.8 C 52 10.5, 52.8 9.8, 52.9 9.9 C 52.9 9.9, 52.1 10.7, 51.9 11.1 C 51.7 11.5, 51.5 11.4, 51.4 12.2 C 51.2 13, 50.9 14.7, 50.9 15.9 C 51 17.2, 51.4 18.5, 51.7 19.6 C 52 20.8, 52.4 21.8, 52.8 22.9 C 53.1 24, 53.4 25, 54 26.1 C 54.5 27.2, 55 28.4, 56 29.5 C 57 30.7, 59.1 32.5, 60 33.2 C 60.8 33.9, 60.8 33.7, 61.1 33.8 C 61.4 34, 61.4 34, 61.6 34 C 61.9 34.1, 62.8 34.3, 62.7 34.3 C 62.6 34.4, 61.5 34.3, 61 34.3 C 60.6 34.4, 60.8 34.2, 59.8 34.6 C 58.8 35.1, 56.6 36.2, 55.2 36.9 C 53.8 37.7, 52.5 38.6, 51.2 39.2 C 50 39.8, 48.9 40.4, 47.8 40.8 C 46.7 41.3, 45.6 41.6, 44.6 41.9 C 43.5 42.1, 42.5 42.2, 41.6 42.4 C 40.7 42.6, 40 42.8, 39.2 43.1 C 38.5 43.4, 37.5 43.9, 37.1 44.1 L 35 43.1 Q 34.7 55.1, 33.3 64.1 Q 32.7 67.1, 32 67.1 Q 31.4 67.1, 30.7 64.1 Q 29.3 55.1, 29 43.1 Z M 37.88 15.88 L 37.88 18.12 L 40.12 18.12 L 40.12 15.88 Z M 37.88 21.08 L 37.88 23.32 L 40.12 23.32 L 40.12 21.08 Z M 40.48 18.48 L 40.48 20.72 L 42.72 20.72 L 42.72 18.48 Z M 43.08 15.88 L 43.08 18.12 L 45.32 18.12 L 45.32 15.88 Z M 43.08 21.08 L 43.08 23.32 L 45.32 23.32 L 45.32 21.08 Z M 45.68 18.48 L 45.68 20.72 L 47.92 20.72 L 47.92 18.48 Z"/>
  <g fill="currentColor">
    <rect x="49.7" y="14.7" width="2.6" height="2.6"/>
    <rect x="52.7" y="17.2" width="2.6" height="2.6"/>
    <rect x="54.7" y="12.7" width="2.6" height="2.6"/>
    <rect x="50.7" y="10.7" width="2.6" height="2.6"/>
    <rect x="56.7" y="19.7" width="2.6" height="2.6"/>
    <rect x="59.22" y="15.22" width="1.56" height="1.56"/>
    <rect x="61.22" y="18.72" width="1.56" height="1.56"/>
    <rect x="58.22" y="10.72" width="1.56" height="1.56"/>
    <rect x="62.22" y="12.72" width="1.56" height="1.56"/>
    <rect x="55.72" y="23.22" width="1.56" height="1.56"/>
    <rect x="60.22" y="22.22" width="1.56" height="1.56"/>
    <rect x="63.22" y="16.22" width="1.56" height="1.56"/>
    <g class="crest-fine">
      <rect x="64.55" y="10.55" width="0.91" height="0.91"/>
      <rect x="63.05" y="21.05" width="0.91" height="0.91"/>
      <rect x="65.55" y="14.55" width="0.91" height="0.91"/>
      <rect x="60.05" y="25.05" width="0.91" height="0.91"/>
      <rect x="64.05" y="23.55" width="0.91" height="0.91"/>
      <rect x="65.55" y="18.55" width="0.91" height="0.91"/>
    </g>
  </g>
</svg>
