<svg xmlns="http://www.w3.org/2000/svg" viewBox="0 0 68 70" role="img">
  <title>National Designation Renewal Secretariat crest (fictional)</title>
  <path fill-rule="evenodd" fill="currentColor" d="M 27.9 43.3 C 27.6 43.1, 26.7 42.8, 26.2 42.5 C 25.7 42.2, 25.3 41.7, 24.6 41.5 C 24 41.3, 23.2 41.3, 22.2 41.2 C 21.3 41.1, 20.3 41, 19.2 40.8 C 18.1 40.5, 17 40.2, 15.8 39.8 C 14.5 39.3, 13.1 38.7, 11.6 38.1 C 10.1 37.5, 7.6 36.6, 6.6 36.3 C 5.5 35.9, 5.7 36, 5.2 36 C 4.6 36, 3.4 36.1, 3.3 36 C 3.2 36, 4.2 35.8, 4.5 35.8 C 4.8 35.7, 4.8 35.7, 5.1 35.5 C 5.4 35.4, 5.4 35.6, 6.4 34.9 C 7.4 34.3, 9.7 32.6, 10.9 31.6 C 12.2 30.6, 13.3 29.7, 14 28.8 C 14.7 27.9, 14.8 27.1, 15.1 26.2 C 15.4 25.3, 15.7 24.5, 15.9 23.5 C 16 22.4, 16 21.2, 15.8 19.9 C 15.5 18.6, 14.7 16.7, 14.4 15.8 C 14 14.9, 14 15.1, 13.7 14.6 C 13.4 14.2, 12.5 13.3, 12.6 13.2 C 12.6 13.2, 13.6 14, 14 14.3 C 14.4 14.6, 15 14.8, 15.2 14.9 C 15.4 15, 14.3 14.7, 15.3 14.9 C 16.2 15.2, 19.5 16.3, 21 16.6 C 22.5 16.9, 23.5 17.1, 24.5 17 C 25.4 16.9, 26 16.4, 26.8 15.9 C 27.6 15.3, 28.4 15, 29.2 13.8 C 29.9 12.7, 31 10.1, 31.4 9.1 C 31.8 8.1, 31.7 8.3, 31.8 7.8 C 31.9 7.3, 31.9 6, 32 6 C 32.1 6, 32.1 7.3, 32.2 7.8 C 32.3 8.3, 32.2 8.1, 32.6 9.1 C 33 10.1, 34.1 12.7, 34.8 13.8 C 35.6 15, 36.4 15.3, 37.2 15.9 C 38 16.4, 38.6 16.9, 39.5 17 C 40.5 17.1, 41.5 16.9, 43 16.6 C 44.5 16.3, 47.8 15.2, 48.7 14.9 C 49.7 14.7, 48.6 15, 48.8 14.9 C 49 14.8, 49.6 14.6, 50 14.3 C 50.4 14, 51.4 13.2, 51.4 13.2 C 51.5 13.3, 50.6 14.2, 50.3 14.6 C 50 15.1, 50 14.9, 49.6 15.8 C 49.3 16.7, 48.5 18.6, 48.2 19.9 C 48 21.2, 48 22.4, 48.1 23.5 C 48.3 24.5, 48.6 25.3, 48.9 26.2 C 49.2 27.1, 49.3 27.9, 50 28.8 C 50.7 29.7, 51.8 30.6, 53.1 31.6 C 54.3 32.6, 56.6 34.3, 57.6 34.9 C 58.6 35.6, 58.6 35.4, 58.9 35.5 C 59.2 35.7, 59.2 35.7, 59.5 35.8 C 59.8 35.8, 60.8 36, 60.7 36 C 60.6 36.1, 59.4 36, 58.8 36 C 58.3 36, 58.5 35.9, 57.4 36.3 C 56.4 36.6, 53.9 37.5, 52.4 38.1 C 50.9 38.7, 49.5 39.3, 48.2 39.8 C 47 40.2, 45.9 40.5, 44.8 40.8 C 43.7 41, 42.7 41.1, 41.8 41.2 C 40.8 41.3, 40 41.3, 39.4 41.5 C 38.7 41.7, 38.3 42.2, 37.8 42.5 C 37.3 42.8, 36.4 43.1, 36.1 43.3 L 35 42.3 Q 34.7 54.3, 33.3 63.3 Q 32.7 66.3, 32 66.3 Q 31.4 66.3, 30.7 63.3 Q 29.3 54.3, 29 42.3 Z M 35.88 18.88 L 35.88 21.12 L 38.12 21.12 L 38.12 18.88 Z M 35.88 24.08 L 35.88 26.32 L 38.12 26.32 L 38.12 24.08 Z M 38.48 21.48 L 38.48 23.72 L 40.72 23.72 L 40.72 21.48 Z M 41.08 18.88 L 41.08 21.12 L 43.32 21.12 L 43.32 18.88 Z M 41.08 24.08 L 41.08 26.32 L 43.32 26.32 L 43.32 24.08 Z M 43.68 21.48 L 43.68 23.72 L 45.92 23.72 L 45.92 21.48 Z"/>
  <g fill="currentColor">
    <rect x="48.2" y="18.1" width="2.6" height="2.6"/>
    <rect x="51.2" y="20.6" width="2.6" height="2.6"/>
    <rect x="53.2" y="16.1" width="2.6" height="2.6"/>
    <rect x="49.2" y="14.1" width="2.6" height="2.6"/>
    <rect x="55.2" y="23.1" width="2.6" height="2.6"/>
    <rect x="57.72" y="18.62" width="1.56" height="1.56"/>
    <rect x="59.72" y="22.12" width="1.56" height="1.56"/>
    <rect x="56.72" y="14.12" width="1.56" height="1.56"/>
    <rect x="60.72" y="16.12" width="1.56" height="1.56"/>
    <rect x="54.22" y="26.62" width="1.56" height="1.56"/>
    <rect x="58.72" y="25.62" width="1.56" height="1.56"/>
    <rect x="61.72" y="19.62" width="1.56" height="1.56"/>
    <g class="crest-fine">
      <rect x="63.05" y="13.95" width="0.91" height="0.91"/>
      <rect x="61.55" y="24.45" width="0.91" height="0.91"/>
      <rect x="64.05" y="17.95" width="0.91" height="0.91"/>
      <rect x="58.55" y="28.45" width="0.91" height="0.91"/>
      <rect x="62.55" y="26.95" width="0.91" height="0.91"/>
      <rect x="64.05" y="21.95" width="0.91" height="0.91"/>
    </g>
  </g>
</svg>
