<svg xmlns="http://www.w3.org/2000/svg" viewBox="0 0 68 70" role="img">
  <title>National Designation Renewal Secretariat crest (fictional)</title>
  <path fill-rule="evenodd" fill="currentColor" d="M 27.9 43.3 C 27.6 43.1, 26.7 42.8, 26.2 42.5 C 25.7 42.2, 25.3 41.7, 24.6 41.5 C 24 41.3, 23.2 41.3, 22.2 41.2 C 21.3 41.1, 20.3 41, 19.2 40.8 C 18.1 40.5, 17 40.2, 15.8 39.8 C 14.5 39.3, 13.1 38.7, 11.6 38.1 C 10.1 37.5, 7.6 36.6, 6.6 36.3 C 5.5 35.9, 5.7 36, 5.2 36 C 4.6 36, 3.4 36.1, 3.3 36 C 3.2 36, 4.2 35.8, 4.5 35.8 C 4.8 35.7, 4.8 35.7, 5.1 35.5 C 5.4 35.4, 5.4 35.6, 6.4 34.9 C 7.4 34.3, 9.7 32.6, 10.9 31.6 C 12.2 30.6, 13.3 29.7, 14 28.8 C 14.7 27.9, 14.8 27.1, 15.1 26.2 C 15.4 25.3, 15.7 24.5, 15.9 23.5 C 16 22.4, 16 21.2, 15.8 19.9 C 15.5 18.6, 14.7 16.7, 14.4 15.8 C 14 14.9, 14 15.1, 13.7 14.6 C 13.4 14.2, 12.5 13.3, 12.6 13.2 C 12.6 13.2, 13.6 14, 14 14.3 C 14.4 14.6, 15 14.8, 15.2 14.9 C 15.4 15, 14.3 14.7, 15.3 14.9 C 16.2 15.2, 19.5 16.3, 21 16.6 C 22.5 16.9, 23.5 17.1, 24.5 17 C 25.4 16.9, 26 16.4, 26.8 15.9 C 27.6 15.3, 28.4 15, 29.2 13.8 C 29.9 12.7, 31 10.1, 31.4 9.1 C 31.8 8.1, 31.7 8.3, 31.8 7.8 C 31.9 7.3, 31.9 6, 32 6 C 32.1 6, 32.1 7.3, 32.2 7.8 C 32.3 8.3, 32.2 8.1, 32.6 9.1 C 33 10.1, 34.1 12.7, 34.8 13.8 C 35.6 15, 36.4 15.3, 37.2 15.9 C 38 16.4, 38.6 16.9, 39.5 17 C 40.5 17.1, 41.5 16.9, 43 16.6 C 44.5 16.3, 47.8 15.2, 48.7 14.9 C 49.7 14.7, 48.6 15, 48.8 14.9 C 49 14.8, 49.6 14.6, 50 14.3 C 50.4 14, 51.4 13.2, 51.4 13.2 C 51.5 13.3, 50.6 14.2, 50.3 14.6 C 50 15.1, 50 14.9, 49.6 15.8 C 49.3 16.7, 48.5 18.6, 48.2 19.9 C 48 21.2, 48 22.4, 48.1 23.5 C 48.3 24.5, 48.6 25.3, 48.9 26.2 C 49.2 27.1, 49.3 27.9, 50 28.8 C 50.7 29.7, 51.8 30.6, 53.1 31.6 C 54.3 32.6, 56.6 34.3, 57.6 34.9 C 58.6 35.6, 58.6 35.4, 58.9 35.5 C 59.2 35.7, 59.2 35.7, 59.5 35.8 C 59.8 35.8, 60.8 36, 60.7 36 C 60.6 36.1, 59.4 36, 58.8 36 C 58.3 36, 58.5 35.9, 57.4 36.3 C 56.4 36.6, 53.9 37.5, 52.4 38.1 C 50.9 38.7, 49.5 39.3, 48.2 39.8 C 47 40.2, 45.9 40.5, 44.8 40.8 C 43.7 41, 42.7 41.1, 41.8 41.2 C 40.8 41.3, 40 41.3, 39.4 41.5 C 38.7 41.7, 38.3 42.2, 37.8 42.5 C 37.3 42.8, 36.4 43.1, 36.1 43.3 L 35 42.3 Q 34.7 54.3, 33.3 63.3 Q 32.7 66.3, 32 66.3 Q 31.4 66.3, 30.7 63.3 Q 29.3 54.3, 29 42.3 Z M 30.07 15.97 L 30.07 18.83 L 32.93 18.83 L 32.93 15.97 Z M 30.07 21.17 L 30.07 24.03 L 32.93 24.03 L 32.93 21.17 Z M 30.07 26.37 L 30.07 29.23 L 32.93 29.23 L 32.93 26.37 Z M 32.67 18.57 L 32.67 21.43 L 35.53 21.43 L 35.53 18.57 Z M 32.67 23.77 L 32.67 26.63 L 35.53 26.63 L 35.53 23.77 Z M 32.67 28.97 L 32.67 31.83 L 35.53 31.83 L 35.53 28.97 Z M 35.27 21.17 L 35.27 24.03 L 38.13 24.03 L 38.13 21.17 Z M 35.27 26.37 L 35.27 29.23 L 38.13 29.23 L 38.13 26.37 Z M 37.87 18.57 L 37.87 21.43 L 40.73 21.43 L 40.73 18.57 Z M 37.87 23.77 L 37.87 26.63 L 40.73 26.63 L 40.73 23.77 Z M 37.87 28.97 L 37.87 31.83 L 40.73 31.83 L 40.73 28.97 Z M 40.47 21.17 L 40.47 24.03 L 43.33 24.03 L 43.33 21.17 Z M 40.47 26.37 L 40.47 29.23 L 43.33 29.23 L 43.33 26.37 Z M 43.07 18.57 L 43.07 21.43 L 45.93 21.43 L 45.93 18.57 Z M 43.07 23.77 L 43.07 26.63 L 45.93 26.63 L 45.93 23.77 Z M 43.07 28.97 L 43.07 31.83 L 45.93 31.83 L 45.93 28.97 Z M 45.67 15.97 L 45.67 18.83 L 48.53 18.83 L 48.53 15.97 Z M 45.67 26.37 L 45.67 29.23 L 48.53 29.23 L 48.53 26.37 Z M 35.07 31.97 L 35.07 34.83 L 37.93 34.83 L 37.93 31.97 Z M 35.07 37.17 L 35.07 40.03 L 37.93 40.03 L 37.93 37.17 Z M 37.67 34.57 L 37.67 37.43 L 40.53 37.43 L 40.53 34.57 Z M 40.27 31.97 L 40.27 34.83 L 43.13 34.83 L 43.13 31.97 Z M 40.27 37.17 L 40.27 40.03 L 43.13 40.03 L 43.13 37.17 Z M 42.87 34.57 L 42.87 37.43 L 45.73 37.43 L 45.73 34.57 Z M 45.47 31.97 L 45.47 34.83 L 48.33 34.83 L 48.33 31.97 Z M 48.07 34.57 L 48.07 37.43 L 50.93 37.43 L 50.93 34.57 Z M 50.67 31.97 L 50.67 34.83 L 53.53 34.83 L 53.53 31.97 Z M 25.07 19.17 L 25.07 22.03 L 27.93 22.03 L 27.93 19.17 Z M 27.67 16.57 L 27.67 19.43 L 30.53 19.43 L 30.53 16.57 Z M 27.67 21.77 L 27.67 24.63 L 30.53 24.63 L 30.53 21.77 Z M 30.27 13.97 L 30.27 16.83 L 33.13 16.83 L 33.13 13.97 Z M 30.27 19.17 L 30.27 22.03 L 33.13 22.03 L 33.13 19.17 Z M 32.87 16.57 L 32.87 19.43 L 35.73 19.43 L 35.73 16.57 Z M 32.87 21.77 L 32.87 24.63 L 35.73 24.63 L 35.73 21.77 Z M 35.47 19.17 L 35.47 22.03 L 38.33 22.03 L 38.33 19.17 Z"/>
  <g fill="currentColor">
    <rect x="48.1" y="19.5" width="2.6" height="2.6"/>
    <rect x="48.1" y="16.9" width="2.6" height="2.6"/>
    <rect x="50.7" y="19.5" width="2.6" height="2.6"/>
    <rect x="48.1" y="16.9" width="2.6" height="2.6"/>
    <rect x="50.7" y="16.9" width="2.6" height="2.6"/>
    <rect x="53.3" y="16.9" width="2.6" height="2.6"/>
    <rect x="50.7" y="11.7" width="2.6" height="2.6"/>
    <rect x="55.9" y="16.9" width="2.6" height="2.6"/>
    <rect x="55.9" y="11.7" width="2.6" height="2.6"/>
    <rect x="55.9" y="11.7" width="2.6" height="2.6"/>
    <rect x="53.82" y="14.82" width="1.56" height="1.56"/>
    <rect x="53.82" y="14.82" width="1.56" height="1.56"/>
    <rect x="59.02" y="20.02" width="1.56" height="1.56"/>
    <rect x="53.82" y="12.22" width="1.56" height="1.56"/>
    <rect x="59.02" y="14.82" width="1.56" height="1.56"/>
    <rect x="61.62" y="14.82" width="1.56" height="1.56"/>
    <rect x="53.82" y="9.62" width="1.56" height="1.56"/>
    <rect x="64.22" y="17.42" width="1.56" height="1.56"/>
    <rect x="59.02" y="9.62" width="1.56" height="1.56"/>
    <rect x="59.02" y="9.62" width="1.56" height="1.56"/>
    <rect x="66.82" y="17.42" width="1.56" height="1.56"/>
    <rect x="56.42" y="4.42" width="1.56" height="1.56"/>
    <rect x="66.82" y="12.22" width="1.56" height="1.56"/>
    <rect x="66.82" y="9.62" width="1.56" height="1.56"/>
    <g class="crest-fine">
      <rect x="61.95" y="12.55" width="0.91" height="0.91"/>
      <rect x="56.75" y="9.95" width="0.91" height="0.91"/>
      <rect x="64.55" y="17.75" width="0.91" height="0.91"/>
      <rect x="56.75" y="7.35" width="0.91" height="0.91"/>
      <rect x="64.55" y="12.55" width="0.91" height="0.91"/>
      <rect x="67.15" y="15.15" width="0.91" height="0.91"/>
      <rect x="56.75" y="4.75" width="0.91" height="0.91"/>
      <rect x="69.75" y="17.75" width="0.91" height="0.91"/>
      <rect x="64.55" y="7.35" width="0.91" height="0.91"/>
      <rect x="64.55" y="7.35" width="0.91" height="0.91"/>
      <rect x="72.35" y="15.15" width="0.91" height="0.91"/>
      <rect x="59.35" y="2.15" width="0.91" height="0.91"/>
      <rect x="72.35" y="12.55" width="0.91" height="0.91"/>
      <rect x="72.35" y="9.95" width="0.91" height="0.91"/>
      <rect x="64.55" y="2.15" width="0.91" height="0.91"/>
      <rect x="77.55" y="17.75" width="0.91" height="0.91"/>
      <rect x="67.15" y="2.15" width="0.91" height="0.91"/>
      <rect x="72.35" y="4.75" width="0.91" height="0.91"/>
    </g>
  </g>
</svg>
